<svg xmlns="http://www.w3.org/2000/svg" fill="#ffffff" viewBox="0 0 779.89 30.08"><g id="Layer_2" data-name="Layer 2"><g id="Layer_1-2" data-name="Layer 1"><path d="M103,30.08v-3l3,0,0,3Zm-12.07-.2-3-.11.12-3,3,.1Zm27.19-.39-.27-3c4.55-.4,10-1.1,16.8-2.12l.45,3C128.27,28.38,122.71,29.08,118.1,29.49Zm-42.23-.31c-5.32-.32-11-.72-17-1.2l.24-3c5.94.48,11.65.88,16.95,1.19Zm460.87-.26c-2.91,0-6,0-9.1-.12l.08-3c6,.16,11.73.17,16.92,0l.09,3C542.18,28.89,539.49,28.92,536.74,28.92ZM515.6,28.3l-3-.17.18-3,3,.18Zm41.18-.16-.23-3,3-.24.24,3Zm-56.2-.87-3-.25.26-3,3,.25ZM46.87,27l-3-.27.28-3,3,.28Zm524.91-.07-.27-3,3-.27.27,3Zm-86.18-1c-5.34-.54-11-1.17-16.93-1.87l.35-3c5.87.7,11.55,1.32,16.89,1.86ZM31.91,25.49l-3-.31.31-3,3,.31Zm554.84,0-.29-3c5.45-.53,11.12-1.1,16.94-1.7l.31,3C597.88,24.38,592.21,25,586.75,25.48ZM147,25.43l-.5-3,3-.5.51,3ZM17,23.87c-10.2-1.16-16.89-2-17-2.05l.39-3c.07,0,6.74.88,16.91,2Zm144.81-1-.53-3,2.95-.53.53,2.95Zm295-.28-3-.39.39-3,3,.38Zm158.94,0-.32-3,3-.32.32,3Zm14.94-1.62-.33-3,3-.33.33,3Zm-188.78-.32-3-.41.42-3,3,.41Zm-265.28-.44L176,17.19l4.33-.8,12.41-2.28.54,3-12.41,2.27Zm469-.9-.33-3,16.92-1.92.34,3C656.82,18,651.16,18.61,645.52,19.24ZM427,18.49q-8.47-1.21-16.84-2.46l.44-3c5.56.83,11.18,1.65,16.82,2.46Zm247.44-2.56L674,13l3-.34.35,3Zm-469.29-1-.53-3,3-.52.52,3Zm193.13-.67-3-.44.44-3,3,.45Zm291.09-.08-.36-3,3-.35.35,3Zm14.92-1.78-.36-3,16.91-2,.36,3Zm-484.37-.07-.51-2.95,3-.51.5,3Zm163.51-.28-3-.44.44-3,3,.44ZM234.68,9.88l-.48-3c5.93-1,11.6-1.8,16.86-2.54l.41,3C246.24,8.09,240.58,8.94,234.68,9.88Zm133.85,0c-6.29-.91-11.8-1.68-16.84-2.35l.4-3C357.14,5.22,362.65,6,369,6.9Zm364.56-1-.37-3,3-.37.37,3ZM748,7.06l-.37-3,3-.37.37,3ZM339.8,6l-3-.36.36-3,3,.36Zm-76.44-.19-.36-3,3-.36.35,3Zm499.57-.6-.37-3C771.79,1.06,777.85.28,779.5.07l.39,3Zm-438-.86-3-.28.27-3,3,.28ZM278.24,4.2l-.27-3L281,1l.25,3ZM310,3.2c-1.33-.06-2.62-.11-3.87-.14-4-.11-8.32-.07-13,.13l-.13-3C297.78,0,302.16,0,306.24.06c1.26,0,2.57.08,3.92.15Z"/></g></g></svg>